<svg xmlns="http://www.w3.org/2000/svg" viewBox="0 0 129 129">
    <defs>
        <style>
            .cls-1{isolation:isolate;}
            .cls-2{mix-blend-mode:multiply;}
            .cls-3{fill:#489de3;}
            .cls-4{fill:#e2bc00;}
            .cls-5{fill:#d4dfe9;}
            .cls-6{fill:#093357;}
        </style>
    </defs>
    <title>calculator</title>
    <g class="cls-1">
        <g id="icons" class="cls-2">
            <rect class="cls-3" x="27" y="12" width="74" height="104" rx="8" ry="8" />
            <rect class="cls-4" x="35" y="20" width="58" height="24" rx="2" ry="2" />
            <rect class="cls-5" x="77" y="52" width="16" height="16" rx="2" ry="2" />
            <rect class="cls-5" x="35" y="52" width="16" height="16" rx="2" ry="2" />
            <rect class="cls-5" x="56" y="52" width="16" height="16" rx="2" ry="2" />
            <rect class="cls-5" x="35" y="72" width="16" height="16" rx="2" ry="2" />
            <rect class="cls-5" x="56" y="72" width="16" height="16" rx="2" ry="2" />
            <rect class="cls-5" x="35" y="92" width="16" height="16" rx="2" ry="2" />
            <rect class="cls-5" x="56" y="92" width="16" height="16" rx="2" ry="2" />
            <rect class="cls-6" x="77" y="72" width="16" height="36" rx="2" ry="2" />
        </g>
    </g>
</svg>