<?xml version="1.0" encoding="utf-8"?>
<!-- Generator: Adobe Illustrator 25.2.0, SVG Export Plug-In . SVG Version: 6.00 Build 0)  -->
<svg version="1.1" id="Layer_1" xmlns="http://www.w3.org/2000/svg" xmlns:xlink="http://www.w3.org/1999/xlink" x="0px" y="0px"
	 viewBox="0 0 222.38 225.7" style="enable-background:new 0 0 222.38 225.7;" xml:space="preserve">
<style type="text/css">
	.st0{fill:#E0E0E0;stroke:#000000;stroke-miterlimit:10;}
	.st1{fill:#353535;stroke:#000000;stroke-miterlimit:10;}
	.st2{fill:#C4C4C4;stroke:#000000;stroke-miterlimit:10;}
	.st3{fill:#1B1B1B;stroke:#000000;stroke-miterlimit:10;}
</style>
<path class="st0" d="M182.94,224H39.4c-20.74,0-37.56-16.81-37.56-37.56V42.91c0-20.74,16.81-37.56,37.56-37.56h143.53
	c20.74,0,37.56,16.81,37.56,37.56v143.53C220.49,207.19,203.68,224,182.94,224z"/>
<path class="st1" d="M147.87,191.53H74.47c-22.17,0-40.15-17.98-40.15-40.15V77.98c0-22.17,17.98-40.15,40.15-40.15h73.41
	c22.17,0,40.15,17.98,40.15,40.15v73.41C188.02,173.56,170.05,191.53,147.87,191.53z"/>
<path class="st2" d="M121.02,164.68h-19.7c-22.17,0-40.15-17.98-40.15-40.15v-19.7c0-22.17,17.98-40.15,40.15-40.15h19.7
	c22.17,0,40.15,17.98,40.15,40.15v19.7C161.17,146.7,143.2,164.68,121.02,164.68z"/>
<rect x="161.17" y="2.55" class="st2" width="21.77" height="2.8"/>
<circle class="st3" cx="111.17" cy="114.68" r="28.09"/>
<ellipse class="st3" cx="172.05" cy="3.95" rx="6.81" ry="0.56"/>
</svg>
